<svg viewBox="0 0 20 20" xmlns="http://www.w3.org/2000/svg"><path d="M12 17v1.01c0 .54-.385.76-.86.474l-3.28-1.968c-.468-.28-.475-.747 0-1.032l3.28-1.968c.468-.28.86-.072.86.475V15h2.002C15.106 15 16 14.098 16 12.99V4.003C16 3.45 16.444 3 17 3c.552 0 1 .45 1 1.007v9C18 15.212 16.205 17 14 17h-2zM3.002 3C2.45 3 2 3.444 2 4c0 .552.456 1 1.002 1h9.996C13.55 5 14 4.556 14 4c0-.552-.456-1-1.002-1H3.002zm0 4C2.45 7 2 7.444 2 8c0 .552.456 1 1.002 1h9.996C13.55 9 14 8.556 14 8c0-.552-.456-1-1.002-1H3.002zm0 4C2.45 11 2 11.444 2 12c0 .552.456 1 1.002 1h9.996C13.55 13 14 12.556 14 12c0-.552-.456-1-1.002-1H3.002z" fill="#000" fill-rule="evenodd"/></svg>