<svg viewBox="0 0 20 20" xmlns="http://www.w3.org/2000/svg"><path d="M4.5 17c.828 0 1.5-.672 1.5-1.5S5.328 14 4.5 14 3 14.672 3 15.5 3.672 17 4.5 17zM4 12c2.448 0 4 1.552 4 4 0 .552.448 1 1 1s1-.448 1-1c0-3.552-2.448-6-6-6-.552 0-1 .448-1 1s.448 1 1 1zm0-4c4.448 0 8 3.552 8 8 0 .552.448 1 1 1s1-.448 1-1C14 10.448 9.552 6 4 6c-.552 0-1 .448-1 1s.448 1 1 1zm0-4c7.448 0 12 4.552 12 12 0 .552.448 1 1 1s1-.448 1-1C18 7.448 12.552 2 4 2c-.552 0-1 .448-1 1s.448 1 1 1z" fill="#000" fill-rule="evenodd"/></svg>