<svg xmlns="http://www.w3.org/2000/svg" width="20" height="20" viewBox="0 0 20 20"><title>mute-sm</title><path d="M16.914 10l2.793-2.793c.39-.39.39-1.023 0-1.414s-1.023-.39-1.414 0L15.5 8.586l-2.793-2.793c-.39-.39-1.023-.39-1.414 0s-.39 1.023 0 1.414L14.086 10l-2.793 2.793c-.39.39-.39 1.023 0 1.414s1.023.39 1.414 0l2.793-2.793 2.793 2.793c.39.39 1.023.39 1.414 0s.39-1.023 0-1.414L16.914 10zM9.294 1.705L5 6H2.01C1.442 6 1 6.446 1 6.997v6.005c0 .545.452.998 1.01.998H5l4.294 4.294c.393.393.706.26.706-.288V1.993c0-.55-.316-.678-.706-.288zM8 14l-1.29-1.29C6.32 12.318 5.558 12 5 12H3V8h2c.553 0 1.313-.312 1.71-.71L8 6v8z"/></svg>