<svg viewBox="0 0 20 20" xmlns="http://www.w3.org/2000/svg"><path d="M14 15.01h-1c-1.025 0-2.13-.82-4.01-2.62l1.383-1.445c1.4 1.34 2.376 2.064 2.627 2.064h1V12c0-.548.392-.756.86-.476l3.28 1.97c.475.284.468.75 0 1.03l-3.28 1.97c-.475.284-.86.064-.86-.476v-1.01zm0-8h-1c-.4 0-1.695 1.107-4.293 3.706-3.402 3.4-4.44 4.293-5.707 4.293H2v-2h1c.4 0 1.695-1.11 4.293-3.708C10.695 5.9 11.733 5.01 13 5.01h1V4c0-.548.392-.756.86-.476l3.28 1.97c.475.284.468.75 0 1.03l-3.28 1.97c-.475.284-.86.064-.86-.476v-1.01zm-12 0h1c.222 0 1.103.627 2.34 1.79l1.37-1.457C5.023 5.757 3.974 5.01 3 5.01H2v2z" fill="#000" fill-rule="evenodd"/></svg>