<svg viewBox="0 0 20 20" xmlns="http://www.w3.org/2000/svg"><path d="M10.6 8.8c-.33-.442-.866-.445-1.2 0l-1.8 2.4c-.33.442-.156.8.4.8h1v5.01c0 .546.444.99 1 .99.552 0 1-.45 1-.99V12h1c.552 0 .734-.355.4-.8l-1.8-2.4zM6 14c-.073 0-.238-.012-.46-.05-.377-.062-.752-.174-1.093-.344C3.525 13.144 3 12.356 3 11c0-1.357.525-2.144 1.447-2.606.34-.17.716-.282 1.092-.345C5.76 8.01 5.926 8 6 8c.552 0 1-.448 1-1 0-.073.012-.238.05-.46.062-.377.174-.752.344-1.093C7.856 4.525 8.644 4 10 4c1.357 0 2.144.525 2.606 1.447.17.34.282.716.345 1.092.038.222.05.387.05.46 0 .552.448 1 1 1 0 0 .238.012.46.05.377.062.752.174 1.093.344C16.475 8.856 17 9.644 17 11c0 1.357-.525 2.144-1.447 2.606-.34.17-.716.282-1.092.345-.222.038-.387.05-.46.05h-2v2h2c.64 0 1.533-.15 2.447-.606C18.025 14.606 19 13.144 19 11c0-2.143-.975-3.606-2.553-4.394C15.533 6.15 14.64 6 14 6l1 1c0-.64-.15-1.533-.606-2.447C13.606 2.975 12.144 2 10 2c-2.143 0-3.606.975-4.394 2.553C5.15 5.467 5 6.36 5 7l1-1c-.64 0-1.533.15-2.447.606C1.975 7.394 1 8.856 1 11c0 2.143.975 3.606 2.553 4.394C4.467 15.85 5.36 16 6 16h2v-2H6z" fill="#000" fill-rule="evenodd"/></svg>